<svg width="16" height="16" viewBox="0 0 16 16" fill="none" xmlns="http://www.w3.org/2000/svg">
<g clip-path="url(#clip0_64_5)">
<path d="M2.2649 3.90877C2.30994 3.61607 2.56178 3.4 2.85793 3.4H13.1421C13.4382 3.4 13.6901 3.61607 13.7351 3.90877L15.4274 14.9088C15.4834 15.2722 15.2022 15.6 14.8344 15.6H1.16562C0.797888 15.6 0.51668 15.2722 0.572596 14.9088L2.2649 3.90877Z" stroke="black" stroke-width="0.8" stroke-miterlimit="1" stroke-linejoin="round"/>
<mask id="mask0_64_5" style="mask-type:luminance" maskUnits="userSpaceOnUse" x="5" y="0" width="6" height="3">
<path d="M5 3C5 2.20435 5.31607 1.44129 5.87868 0.87868C6.44129 0.31607 7.20435 0 8 0C8.79568 0 9.55872 0.31607 10.1214 0.87868C10.6839 1.44129 11 2.20435 11 3" fill="white"/>
</mask>
<g mask="url(#mask0_64_5)">
<path d="M4.20001 3C4.20001 3.44182 4.55819 3.8 5.00001 3.8C5.44184 3.8 5.80001 3.44182 5.80001 3H4.20001ZM10.2 3C10.2 3.44182 10.5582 3.8 11 3.8C11.4419 3.8 11.8 3.44182 11.8 3H10.2ZM5.80001 3C5.80001 2.41652 6.0318 1.85694 6.44438 1.44436L5.313 0.312991C4.60036 1.02563 4.20001 1.99217 4.20001 3H5.80001ZM6.44438 1.44436C6.85696 1.03178 7.41653 0.799997 8.00001 0.799997V-0.800003C6.99219 -0.800003 6.02564 -0.399647 5.313 0.312991L6.44438 1.44436ZM8.00001 0.799997C8.58345 0.799997 9.14305 1.03178 9.55561 1.44436L10.6871 0.312991C9.97441 -0.399647 9.00785 -0.800003 8.00001 -0.800003V0.799997ZM9.55561 1.44436C9.96825 1.85694 10.2 2.41652 10.2 3H11.8C11.8 1.99217 11.3997 1.02563 10.6871 0.312991L9.55561 1.44436Z" fill="black"/>
</g>
</g>
<defs>
<clipPath id="clip0_64_5">
<rect width="16" height="16" fill="white"/>
</clipPath>
</defs>
</svg>
