<svg width="16" height="16" viewBox="0 0 16 16" fill="none" xmlns="http://www.w3.org/2000/svg">
<g clip-path="url(#clip0_64_12)">
<path d="M12.6 4.99999C12.6 7.54051 10.5405 9.59999 8.00002 9.59999C5.45951 9.59999 3.40002 7.54051 3.40002 4.99999C3.40002 2.45948 5.45951 0.399994 8.00002 0.399994C10.5405 0.399994 12.6 2.45948 12.6 4.99999Z" stroke="black" stroke-width="0.8" stroke-miterlimit="10"/>
<mask id="mask0_64_12" style="mask-type:luminance" maskUnits="userSpaceOnUse" x="0" y="9" width="16" height="7">
<path d="M0 16C0 14.3026 0.842856 12.6747 2.34314 11.4745C3.84344 10.2743 5.87827 9.60001 8 9.60001C10.1218 9.60001 12.1566 10.2743 13.6569 11.4745C15.1571 12.6747 16 14.3026 16 16" fill="white"/>
</mask>
<g mask="url(#mask0_64_12)">
<path d="M-0.799988 16V16.8H0.800012V16H-0.799988ZM15.2 16V16.8H16.8V16H15.2ZM0.800012 16C0.800012 14.5798 1.50408 13.1703 2.84292 12.0992L1.8434 10.8498C0.181661 12.1792 -0.799988 14.0255 -0.799988 16H0.800012ZM2.84292 12.0992C4.18639 11.0244 6.0398 10.4 8.00001 10.4V8.8C5.71676 8.8 3.50051 9.52416 1.8434 10.8498L2.84292 12.0992ZM8.00001 10.4C9.96025 10.4 11.8136 11.0244 13.1571 12.0992L14.1567 10.8498C12.4995 9.52416 10.2833 8.8 8.00001 8.8V10.4ZM13.1571 12.0992C14.4959 13.1703 15.2 14.5798 15.2 16H16.8C16.8 14.0255 15.8183 12.1792 14.1567 10.8498L13.1571 12.0992Z" fill="black"/>
</g>
</g>
<defs>
<clipPath id="clip0_64_12">
<rect width="16" height="16" fill="white"/>
</clipPath>
</defs>
</svg>
