<svg width="132" height="40" viewBox="0 0 132 40" fill="none" xmlns="http://www.w3.org/2000/svg">
<rect width="40" height="40" rx="5" fill="#155932"/>
<path d="M17.5537 12.7705L15.4355 19.1953L17.7559 27H13.9326L12.4385 20.9004V27H8.73828V12.7705H12.4385V18.2988L14.082 12.7705H17.5537ZM29.8232 12.7705V27H26.5889V17.3936L25.2969 27H23.0029L21.6406 17.6133V27H18.4062V12.7705H23.1963C23.3369 13.626 23.4863 14.6338 23.6445 15.7939L24.1543 19.415L24.998 12.7705H29.8232Z" fill="white"/>
<path d="M42.75 16V4.36364H45.9091V9.06818H46.0682L49.5682 4.36364H53.25L49.3182 9.54545L53.3409 16H49.5682L46.9545 11.6364L45.9091 13V16H42.75ZM54.1875 16V4.36364H62.5739V6.90909H57.3466V8.90909H62.142V11.4545H57.3466V13.4545H62.5511V16H54.1875ZM64.1406 16V4.36364H69.1634C70.027 4.36364 70.7827 4.52083 71.4304 4.83523C72.0781 5.14962 72.5819 5.60227 72.9418 6.19318C73.3016 6.78409 73.4815 7.49242 73.4815 8.31818C73.4815 9.15151 73.2959 9.85417 72.9247 10.4261C72.5573 10.9981 72.0402 11.4299 71.3736 11.7216C70.7107 12.0133 69.9361 12.1591 69.0497 12.1591H66.0497V9.70455H68.4134C68.7846 9.70455 69.1009 9.65909 69.3622 9.56818C69.6274 9.47348 69.83 9.32386 69.9702 9.11932C70.1141 8.91477 70.1861 8.64773 70.1861 8.31818C70.1861 7.98485 70.1141 7.71402 69.9702 7.50568C69.83 7.29356 69.6274 7.13826 69.3622 7.03977C69.1009 6.9375 68.7846 6.88636 68.4134 6.88636H67.2997V16H64.1406ZM70.9588 10.6591L73.8679 16H70.4361L67.5952 10.6591H70.9588ZM81.1009 8C81.0705 7.62121 80.9285 7.32576 80.6747 7.11364C80.4247 6.90151 80.044 6.79545 79.5327 6.79545C79.2069 6.79545 78.9399 6.83523 78.7315 6.91477C78.527 6.99053 78.3755 7.0947 78.277 7.22727C78.1785 7.35985 78.1274 7.51136 78.1236 7.68182C78.116 7.82197 78.1406 7.94886 78.1974 8.0625C78.258 8.17235 78.3527 8.27273 78.4815 8.36364C78.6103 8.45076 78.7751 8.5303 78.9759 8.60227C79.1766 8.67424 79.4152 8.73864 79.6918 8.79545L80.6463 9C81.2902 9.13636 81.8414 9.31629 82.2997 9.53977C82.758 9.76326 83.133 10.0265 83.4247 10.3295C83.7164 10.6288 83.9304 10.9659 84.0668 11.3409C84.2069 11.7159 84.2789 12.125 84.2827 12.5682C84.2789 13.3333 84.0876 13.9811 83.7088 14.5114C83.33 15.0417 82.7884 15.4451 82.0838 15.7216C81.383 15.9981 80.5402 16.1364 79.5554 16.1364C78.544 16.1364 77.6615 15.9867 76.9077 15.6875C76.1577 15.3883 75.5743 14.928 75.1577 14.3068C74.7448 13.6818 74.5365 12.8826 74.5327 11.9091H77.5327C77.5516 12.2652 77.6406 12.5644 77.7997 12.8068C77.9588 13.0492 78.1823 13.233 78.4702 13.358C78.7618 13.483 79.1084 13.5455 79.5099 13.5455C79.8471 13.5455 80.1293 13.5038 80.3565 13.4205C80.5838 13.3371 80.7562 13.2216 80.8736 13.0739C80.991 12.9261 81.0516 12.7576 81.0554 12.5682C81.0516 12.3902 80.9929 12.2348 80.8793 12.1023C80.7694 11.9659 80.5876 11.8447 80.3338 11.7386C80.08 11.6288 79.7372 11.5265 79.3054 11.4318L78.1463 11.1818C77.116 10.9583 76.3035 10.5852 75.7088 10.0625C75.1179 9.53598 74.8243 8.81818 74.8281 7.90909C74.8243 7.17045 75.0213 6.52462 75.419 5.97159C75.8205 5.41477 76.3755 4.98106 77.0838 4.67045C77.7959 4.35985 78.6122 4.20455 79.5327 4.20455C80.4721 4.20455 81.2846 4.36174 81.9702 4.67614C82.6558 4.99053 83.1842 5.43371 83.5554 6.00568C83.9304 6.57386 84.1198 7.23864 84.1236 8H81.1009ZM96.7571 10.1818C96.7571 11.4773 96.5052 12.5701 96.0014 13.4602C95.4976 14.3466 94.8177 15.0189 93.9616 15.4773C93.1056 15.9318 92.151 16.1591 91.098 16.1591C90.0374 16.1591 89.0791 15.9299 88.223 15.4716C87.3707 15.0095 86.6927 14.3352 86.1889 13.4489C85.6889 12.5587 85.4389 11.4697 85.4389 10.1818C85.4389 8.88636 85.6889 7.79545 86.1889 6.90909C86.6927 6.01894 87.3707 5.34659 88.223 4.89205C89.0791 4.43371 90.0374 4.20455 91.098 4.20455C92.151 4.20455 93.1056 4.43371 93.9616 4.89205C94.8177 5.34659 95.4976 6.01894 96.0014 6.90909C96.5052 7.79545 96.7571 8.88636 96.7571 10.1818ZM93.5071 10.1818C93.5071 9.48485 93.4143 8.89773 93.2287 8.42045C93.0469 7.93939 92.776 7.57576 92.4162 7.32955C92.0601 7.07955 91.6207 6.95455 91.098 6.95455C90.5753 6.95455 90.134 7.07955 89.7741 7.32955C89.4181 7.57576 89.1473 7.93939 88.9616 8.42045C88.7798 8.89773 88.6889 9.48485 88.6889 10.1818C88.6889 10.8788 88.7798 11.4678 88.9616 11.9489C89.1473 12.4261 89.4181 12.7898 89.7741 13.0398C90.134 13.286 90.5753 13.4091 91.098 13.4091C91.6207 13.4091 92.0601 13.286 92.4162 13.0398C92.776 12.7898 93.0469 12.4261 93.2287 11.9489C93.4143 11.4678 93.5071 10.8788 93.5071 10.1818ZM98.2188 16V4.36364H103.241C104.105 4.36364 104.861 4.52083 105.509 4.83523C106.156 5.14962 106.66 5.60227 107.02 6.19318C107.38 6.78409 107.56 7.49242 107.56 8.31818C107.56 9.15151 107.374 9.85417 107.003 10.4261C106.635 10.9981 106.118 11.4299 105.452 11.7216C104.789 12.0133 104.014 12.1591 103.128 12.1591H100.128V9.70455H102.491C102.863 9.70455 103.179 9.65909 103.44 9.56818C103.705 9.47348 103.908 9.32386 104.048 9.11932C104.192 8.91477 104.264 8.64773 104.264 8.31818C104.264 7.98485 104.192 7.71402 104.048 7.50568C103.908 7.29356 103.705 7.13826 103.44 7.03977C103.179 6.9375 102.863 6.88636 102.491 6.88636H101.378V16H98.2188ZM105.037 10.6591L107.946 16H104.514L101.673 10.6591H105.037Z" fill="#155932"/>
<path d="M42.9375 21.4545H47.8523L51.233 29.6932H51.4034L54.7841 21.4545H59.6989V36H55.8352V27.5909H55.7216L52.483 35.8864H50.1534L46.9148 27.5341H46.8011V36H42.9375V21.4545ZM65.3487 36H61.0874L65.8885 21.4545H71.2862L76.0874 36H71.826L68.6442 25.4602H68.5305L65.3487 36ZM64.5533 30.2614H72.5646V33.2159H64.5533V30.2614ZM77.4883 36V21.4545H83.7667C84.8462 21.4545 85.7908 21.651 86.6005 22.044C87.4102 22.437 88.0399 23.0028 88.4897 23.7415C88.9395 24.4801 89.1644 25.3655 89.1644 26.3977C89.1644 27.4394 88.9324 28.3177 88.4684 29.0327C88.0091 29.7476 87.3628 30.2874 86.5295 30.652C85.7009 31.0166 84.7326 31.1989 83.6246 31.1989H79.8746V28.1307H82.8292C83.2932 28.1307 83.6886 28.0739 84.0153 27.9602C84.3467 27.8419 84.6 27.6548 84.7752 27.3991C84.9551 27.1435 85.0451 26.8097 85.0451 26.3977C85.0451 25.9811 84.9551 25.6425 84.7752 25.3821C84.6 25.117 84.3467 24.9228 84.0153 24.7997C83.6886 24.6719 83.2932 24.608 82.8292 24.608H81.4371V36H77.4883ZM86.011 29.3239L89.6474 36H85.3576L81.8065 29.3239H86.011ZM90.8477 36V21.4545H94.7965V27.3352H94.9954L99.3704 21.4545H103.973L99.0579 27.9318L104.086 36H99.3704L96.1033 30.5455L94.7965 32.25V36H90.8477ZM105.145 36V21.4545H115.627V24.6364H109.093V27.1364H115.088V30.3182H109.093V32.8182H115.599V36H105.145ZM117.188 24.6364V21.4545H129.83V24.6364H125.455V36H121.563V24.6364H117.188Z" fill="#155932"/>
</svg>
